<svg width="938" height="163" viewBox="0 0 938 163" fill="none" xmlns="http://www.w3.org/2000/svg">
<path fill-rule="evenodd" clip-rule="evenodd" d="M18.667 25.0254H39.8265V39.3814H28.1194C20.4528 39.3814 14.2378 45.5964 14.2378 53.263V108.788C14.2378 116.454 20.4528 122.669 28.1194 122.669H83.8891C91.5557 122.669 97.7707 116.454 97.7707 108.788V53.263C97.7707 49.5814 96.3082 46.0505 93.7048 43.4472C91.1015 40.8439 87.5707 39.3814 83.8891 39.3814H73.6134V25.0254H93.333C98.2838 25.0254 103.032 26.9921 106.533 30.4928C110.033 33.9936 112 38.7416 112 43.6924V118.358C112 128.668 103.642 137.025 93.333 137.025H18.667C8.35752 137.025 0 128.668 0 118.358V43.6924C0 33.3829 8.35752 25.0254 18.667 25.0254Z" fill="#FF8000"/>
<path fill-rule="evenodd" clip-rule="evenodd" d="M34 65.0909C34 61.1747 37.3579 58 41.5002 58H71.4999C73.489 58 75.3967 58.7471 76.8033 60.0769C78.2098 61.4067 79 63.2103 79 65.0909V95.9091C79 99.8253 75.6421 103 71.4999 103H41.5002C37.3579 103 34 99.8253 34 95.9091V65.0909Z" fill="#FF8000"/>
<path fill-rule="evenodd" clip-rule="evenodd" d="M20 27.4151C20 26.0953 21.0699 25.0254 22.3897 25.0254H43.5718C44.2056 25.0254 44.8134 25.2772 45.2616 25.7253C45.7097 26.1735 45.9615 26.7813 45.9615 27.4151V36.9736C45.9615 38.2934 44.8916 39.3633 43.5718 39.3633H22.3897C21.0699 39.3633 20 38.2934 20 36.9736V27.4151Z" fill="#FF8000"/>
<path fill-rule="evenodd" clip-rule="evenodd" d="M66 27.3897C66 26.0699 67.0699 25 68.3897 25H89.5718C90.2056 25 90.8134 25.2518 91.2616 25.6999C91.7097 26.1481 91.9615 26.7559 91.9615 27.3897V36.9482C91.9615 38.268 90.8916 39.3379 89.5718 39.3379H68.3897C67.0699 39.3379 66 38.268 66 36.9482V27.3897Z" fill="#FF8000"/>
<path d="M198.328 130.5C188.734 130.5 180.365 128.609 173.219 124.828C166.083 121.047 160.594 115.677 156.75 108.719C152.917 101.76 151 93.5416 151 84.0624C151 76.9791 152.078 70.6197 154.234 64.9843C156.391 59.3385 159.536 54.5364 163.672 50.5781C167.818 46.6197 172.828 43.5885 178.703 41.4843C184.589 39.3801 191.13 38.3281 198.328 38.3281C202.057 38.3281 206.021 38.7812 210.219 39.6874C214.417 40.5833 218.557 42.1145 222.641 44.2812C225.036 45.3541 226.682 46.8801 227.578 48.8593C228.484 50.8385 228.818 52.8801 228.578 54.9843C228.339 57.0885 227.589 58.9531 226.328 60.5781C225.068 62.1926 223.474 63.2708 221.547 63.8124C219.63 64.3437 217.474 64.0104 215.078 62.8124C212.797 61.4895 210.427 60.5312 207.969 59.9374C205.51 59.3333 203.198 59.0312 201.031 59.0312C197.438 59.0312 194.26 59.6041 191.5 60.7499C188.74 61.8854 186.427 63.5051 184.562 65.6093C182.708 67.7031 181.271 70.3124 180.25 73.4374C179.229 76.552 178.719 80.151 178.719 84.2343C178.719 92.151 180.667 98.3593 184.562 102.859C188.469 107.359 193.958 109.609 201.031 109.609C203.198 109.609 205.479 109.344 207.875 108.812C210.271 108.271 212.672 107.338 215.078 106.016C217.474 104.818 219.63 104.521 221.547 105.125C223.474 105.719 225.005 106.828 226.141 108.453C227.286 110.068 227.948 111.927 228.125 114.031C228.302 116.125 227.938 118.161 227.031 120.141C226.135 122.12 224.552 123.651 222.281 124.734C218.198 126.776 214.115 128.245 210.031 129.141C205.958 130.047 202.057 130.5 198.328 130.5ZM270.868 130.5C264.388 130.5 258.571 129.24 253.414 126.719C248.258 124.198 244.237 120.776 241.352 116.453C238.477 112.13 237.039 107.271 237.039 101.875C237.039 95.3958 238.716 90.2656 242.071 86.4843C245.435 82.7031 250.894 80.0051 258.446 78.3906C266.008 76.7656 276.029 75.9531 288.508 75.9531H298.055V89.9999H288.696C282.571 89.9999 277.618 90.3281 273.836 90.9843C270.065 91.6406 267.368 92.7499 265.743 94.3124C264.128 95.8749 263.321 98.0364 263.321 100.797C263.321 104.151 264.487 106.911 266.821 109.078C269.164 111.234 272.555 112.312 276.993 112.312C280.472 112.312 283.56 111.505 286.258 109.891C288.966 108.266 291.097 106.047 292.649 103.234C294.211 100.411 294.993 97.1979 294.993 93.5937V72.8906C294.993 67.6093 293.789 63.8593 291.383 61.6406C288.987 59.4218 284.909 58.3124 279.149 58.3124C275.909 58.3124 272.399 58.7031 268.618 59.4843C264.847 60.2656 260.68 61.5572 256.118 63.3593C253.472 64.5572 251.128 64.8281 249.086 64.1718C247.055 63.5051 245.498 62.302 244.414 60.5624C243.331 58.8229 242.789 56.9062 242.789 54.8124C242.789 52.7083 243.388 50.6666 244.586 48.6874C245.795 46.7083 247.779 45.2395 250.539 44.2812C256.175 41.9999 261.482 40.4374 266.461 39.5937C271.44 38.7499 276.034 38.3281 280.243 38.3281C289.482 38.3281 297.071 39.6822 303.008 42.3906C308.946 45.0885 313.414 49.2291 316.414 54.8124C319.414 60.3854 320.914 67.552 320.914 76.3124V116.281C320.914 120.719 319.831 124.141 317.664 126.547C315.508 128.943 312.394 130.141 308.321 130.141C304.237 130.141 301.086 128.943 298.868 126.547C296.649 124.141 295.539 120.719 295.539 116.281V109.609L296.789 110.703C296.071 114.776 294.539 118.286 292.196 121.234C289.862 124.172 286.894 126.453 283.289 128.078C279.696 129.693 275.555 130.5 270.868 130.5ZM355.299 130.141C350.737 130.141 347.253 128.943 344.846 126.547C342.45 124.141 341.253 120.719 341.253 116.281V52.3749C341.253 47.9374 342.419 44.552 344.753 42.2187C347.096 39.8749 350.372 38.7031 354.581 38.7031C358.893 38.7031 362.19 39.8749 364.471 42.2187C366.753 44.552 367.893 47.9374 367.893 52.3749V61.7343H366.096C367.534 54.5364 370.711 48.9583 375.628 44.9999C380.555 41.0416 386.919 38.8176 394.721 38.3281C397.721 38.0885 400.029 38.8437 401.643 40.5937C403.268 42.3333 404.138 45.1822 404.253 49.1406C404.492 52.8593 403.742 55.802 402.003 57.9687C400.263 60.1249 397.352 61.4426 393.268 61.9218L389.128 62.2812C382.294 62.8749 377.227 64.8541 373.924 68.2187C370.622 71.5729 368.971 76.4322 368.971 82.7968V116.281C368.971 120.719 367.799 124.141 365.456 126.547C363.122 128.943 359.737 130.141 355.299 130.141ZM456.277 162.891C449.798 162.891 443.584 162.349 437.636 161.266C431.699 160.193 426.454 158.578 421.902 156.422C419.142 155.214 417.188 153.651 416.043 151.734C414.907 149.818 414.428 147.776 414.605 145.609C414.782 143.453 415.501 141.531 416.761 139.844C418.022 138.167 419.61 137 421.527 136.344C423.454 135.687 425.496 135.838 427.652 136.797C432.933 139.193 437.824 140.75 442.324 141.469C446.824 142.198 450.694 142.562 453.933 142.562C461.61 142.562 467.371 140.818 471.214 137.328C475.058 133.849 476.98 128.51 476.98 121.312V107.641H478.589C476.798 113.161 473.079 117.661 467.433 121.141C461.798 124.62 455.558 126.359 448.714 126.359C440.798 126.359 433.897 124.531 428.011 120.875C422.136 117.208 417.579 112.047 414.339 105.391C411.1 98.7239 409.48 91.0103 409.48 82.2499C409.48 75.6562 410.407 69.6614 412.261 64.2656C414.126 58.8593 416.767 54.2395 420.183 50.4062C423.6 46.5624 427.741 43.5885 432.605 41.4843C437.47 39.3801 442.839 38.3281 448.714 38.3281C455.798 38.3281 462.069 40.0416 467.527 43.4687C472.985 46.8854 476.616 51.3541 478.418 56.8749L476.621 62.6406V52.3749C476.621 47.9374 477.787 44.552 480.121 42.2187C482.464 39.8749 485.798 38.7031 490.121 38.7031C494.433 38.7031 497.73 39.8749 500.011 42.2187C502.293 44.552 503.433 47.9374 503.433 52.3749V118.25C503.433 133.01 499.381 144.141 491.277 151.641C483.183 159.141 471.517 162.891 456.277 162.891ZM456.808 106.016C460.892 106.016 464.402 105.057 467.339 103.141C470.287 101.213 472.6 98.4843 474.277 94.9531C475.954 91.4114 476.793 87.177 476.793 82.2499C476.793 74.8124 474.959 69.026 471.293 64.8906C467.636 60.7447 462.808 58.6718 456.808 58.6718C452.735 58.6718 449.199 59.6041 446.199 61.4687C443.199 63.3229 440.886 66.0208 439.261 69.5624C437.647 73.1041 436.839 77.3333 436.839 82.2499C436.839 89.6978 438.636 95.5208 442.23 99.7187C445.834 103.917 450.694 106.016 456.808 106.016ZM566.977 130.5C557.498 130.5 549.248 128.641 542.227 124.922C535.206 121.193 529.774 115.849 525.93 108.891C522.097 101.932 520.18 93.7135 520.18 84.2343C520.18 77.151 521.258 70.7916 523.414 65.1562C525.571 59.5208 528.717 54.6926 532.852 50.6718C536.998 46.651 541.951 43.5885 547.711 41.4843C553.472 39.3801 559.894 38.3281 566.977 38.3281C576.456 38.3281 584.706 40.1926 591.727 43.9218C598.748 47.6406 604.206 52.9218 608.102 59.7656C612.008 66.5989 613.961 74.7551 613.961 84.2343C613.961 91.4322 612.847 97.8541 610.618 103.5C608.399 109.135 605.248 113.995 601.165 118.078C597.092 122.161 592.144 125.255 586.321 127.359C580.508 129.453 574.06 130.5 566.977 130.5ZM566.977 110.156C570.935 110.156 574.352 109.198 577.227 107.281C580.112 105.354 582.394 102.505 584.071 98.7343C585.758 94.9531 586.602 90.1197 586.602 84.2343C586.602 75.4739 584.8 69.026 581.196 64.8906C577.592 60.7447 572.852 58.6718 566.977 58.6718C563.133 58.6718 559.743 59.5729 556.805 61.3749C553.868 63.177 551.586 65.9687 549.961 69.7499C548.347 73.5312 547.539 78.3593 547.539 84.2343C547.539 92.9947 549.336 99.5051 552.93 103.766C556.534 108.026 561.217 110.156 566.977 110.156Z" fill="black"/>
<path d="M644.2 130.141C639.752 130.141 636.356 128.943 634.013 126.547C631.679 124.141 630.513 120.719 630.513 116.281V13.8594C630.513 9.29688 631.679 5.84896 634.013 3.51562C636.356 1.17188 639.752 0 644.2 0C648.513 0 651.841 1.17188 654.185 3.51562C656.528 5.84896 657.7 9.29688 657.7 13.8594V56.7031H655.169C657.929 50.8177 662.039 46.2865 667.497 43.1094C672.966 39.9219 679.179 38.3281 686.138 38.3281C693.221 38.3281 699.039 39.6823 703.591 42.3906C708.153 45.0885 711.575 49.1667 713.856 54.625C716.138 60.0833 717.278 67.0156 717.278 75.4219V116.281C717.278 120.719 716.106 124.141 713.763 126.547C711.429 128.943 708.039 130.141 703.591 130.141C699.278 130.141 695.95 128.943 693.606 126.547C691.263 124.141 690.091 120.719 690.091 116.281V76.6719C690.091 70.5573 688.981 66.151 686.763 63.4531C684.544 60.7448 681.153 59.3906 676.591 59.3906C670.83 59.3906 666.242 61.1927 662.825 64.7969C659.409 68.401 657.7 73.2031 657.7 79.2031V116.281C657.7 125.521 653.2 130.141 644.2 130.141ZM770.191 130.5C762.753 130.5 756.571 129.12 751.644 126.359C746.727 123.599 743.097 119.427 740.753 113.844C738.42 108.26 737.253 101.333 737.253 93.0625V52.375C737.253 47.8125 738.42 44.3958 740.753 42.125C743.097 39.8438 746.43 38.7031 750.753 38.7031C755.076 38.7031 758.436 39.8438 760.831 42.125C763.238 44.3958 764.441 47.8125 764.441 52.375V93.7812C764.441 99.0625 765.519 102.995 767.675 105.578C769.831 108.151 773.253 109.437 777.941 109.437C783.097 109.437 787.326 107.609 790.628 103.953C793.93 100.286 795.581 95.4531 795.581 89.4531V52.375C795.581 47.8125 796.748 44.3958 799.081 42.125C801.425 39.8438 804.759 38.7031 809.081 38.7031C813.519 38.7031 816.904 39.8438 819.238 42.125C821.581 44.3958 822.753 47.8125 822.753 52.375V116.281C822.753 125.521 818.373 130.141 809.613 130.141C805.29 130.141 801.988 128.943 799.706 126.547C797.436 124.141 796.3 120.719 796.3 116.281V104.219L798.988 111.234C796.352 117.359 792.571 122.104 787.644 125.469C782.727 128.823 776.91 130.5 770.191 130.5ZM898.36 130.5C891.276 130.5 885.005 128.729 879.547 125.187C874.089 121.646 870.459 116.937 868.656 111.062L870.641 105.109V116.281C870.641 120.719 869.5 124.141 867.219 126.547C864.938 128.943 861.636 130.141 857.313 130.141C852.99 130.141 849.656 128.943 847.313 126.547C844.979 124.141 843.813 120.719 843.813 116.281V13.8594C843.813 9.29688 844.979 5.84896 847.313 3.51562C849.656 1.17188 853.052 0 857.5 0C861.813 0 865.141 1.17188 867.485 3.51562C869.828 5.84896 871 9.29688 871 13.8594V56.5156H868.828C870.755 51.1198 874.417 46.7396 879.813 43.375C885.219 40.0104 891.401 38.3281 898.36 38.3281C906.162 38.3281 912.938 40.1927 918.688 43.9219C924.448 47.6406 928.948 52.9219 932.188 59.7656C935.438 66.599 937.063 74.7552 937.063 84.2344C937.063 93.7135 935.438 101.932 932.188 108.891C928.948 115.849 924.417 121.193 918.594 124.922C912.781 128.641 906.037 130.5 898.36 130.5ZM890.25 110.156C894.094 110.156 897.485 109.198 900.422 107.281C903.36 105.354 905.636 102.505 907.25 98.7344C908.875 94.9531 909.688 90.1198 909.688 84.2344C909.688 75.474 907.886 69.026 904.281 64.8906C900.688 60.7448 896.011 58.6719 890.25 58.6719C886.417 58.6719 883.026 59.5729 880.078 61.375C877.141 63.1771 874.834 65.9688 873.156 69.75C871.479 73.5312 870.641 78.3594 870.641 84.2344C870.641 92.9948 872.438 99.5052 876.031 103.766C879.636 108.026 884.375 110.156 890.25 110.156Z" fill="#FF8000"/>
</svg>
