<svg width="177" height="46" viewBox="0 0 177 46" fill="none" xmlns="http://www.w3.org/2000/svg">
<path fillRule="evenodd" clipRule="evenodd" d="M5.18695 8.2373H11.0664V12.2256H7.81281C5.68251 12.2256 3.95557 13.9522 3.95557 16.082V31.5074C3.95557 33.6373 5.68251 35.3639 7.81281 35.3639H23.3093C25.4396 35.3639 27.1666 33.6373 27.1666 31.5074V16.082C27.1666 15.0592 26.7602 14.0783 26.0368 13.3551C25.3134 12.6319 24.3323 12.2256 23.3093 12.2256H20.4546V8.2373H25.9341C27.3098 8.2373 28.6291 8.78368 29.6019 9.75622C30.5746 10.7288 31.1211 12.0478 31.1211 13.4232V34.1662C31.1211 37.0303 28.7988 39.3521 25.9341 39.3521H5.18695C2.32228 39.3521 0 37.0303 0 34.1662V13.4232C0 10.5591 2.32228 8.2373 5.18695 8.2373Z" fill="#FF4F01"/>
<path fillRule="evenodd" clipRule="evenodd" d="M9.44873 19.3684C9.44873 18.2804 10.3818 17.3984 11.5328 17.3984H19.8687C20.4214 17.3984 20.9515 17.606 21.3423 17.9754C21.7332 18.3448 21.9527 18.8459 21.9527 19.3684V27.93C21.9527 29.0179 21.0197 29.8999 19.8687 29.8999H11.5328C10.3818 29.8999 9.44873 29.0179 9.44873 27.93V19.3684Z" fill="#FF4F01"/>
<path fillRule="evenodd" clipRule="evenodd" d="M5.55713 8.90119C5.55713 8.53453 5.85442 8.2373 6.22115 8.2373H12.107C12.2831 8.2373 12.452 8.30725 12.5765 8.43175C12.701 8.55626 12.771 8.72512 12.771 8.90119V11.5566C12.771 11.9233 12.4737 12.2205 12.107 12.2205H6.22115C5.85442 12.2205 5.55713 11.9233 5.55713 11.5566V8.90119Z" fill="#FF4F01"/>
<path fillRule="evenodd" clipRule="evenodd" d="M18.3374 8.89436C18.3374 8.5277 18.6347 8.23047 19.0014 8.23047H24.8872C25.0633 8.23047 25.2322 8.30041 25.3568 8.42491C25.4813 8.54942 25.5512 8.71828 25.5512 8.89436V11.5498C25.5512 11.9165 25.254 12.2137 24.8872 12.2137H19.0014C18.6347 12.2137 18.3374 11.9165 18.3374 11.5498V8.89436Z" fill="#FF4F01"/>
<path d="M51.8784 34.3344C50.0282 34.3344 48.635 33.8105 47.6988 32.7628C46.7626 31.6929 46.2945 30.1325 46.2945 28.0817V12.2662C46.2945 11.5751 46.4728 11.0513 46.8295 10.6946C47.1861 10.338 47.6988 10.1597 48.3676 10.1597C49.0363 10.1597 49.549 10.338 49.9056 10.6946C50.2846 11.0513 50.4741 11.5751 50.4741 12.2662V27.8811C50.4741 28.9065 50.6858 29.6644 51.1094 30.1548C51.5552 30.6452 52.1793 30.8904 52.9818 30.8904C53.1601 30.8904 53.3273 30.8904 53.4834 30.8904C53.6394 30.8681 53.7954 30.8458 53.9515 30.8235C54.2635 30.7789 54.4753 30.8681 54.5868 31.091C54.6982 31.2916 54.754 31.7152 54.754 32.3616C54.754 32.9189 54.6425 33.3536 54.4196 33.6656C54.1967 33.9777 53.8289 34.1672 53.3162 34.2341C53.0933 34.2563 52.8592 34.2786 52.614 34.3009C52.3688 34.3232 52.1236 34.3344 51.8784 34.3344ZM59.0451 34.2341C58.3763 34.2341 57.8636 34.0334 57.507 33.6322C57.1503 33.231 56.972 32.6737 56.972 31.9604V19.6891C56.972 18.9535 57.1503 18.3962 57.507 18.0173C57.8636 17.616 58.3763 17.4154 59.0451 17.4154C59.7138 17.4154 60.2265 17.616 60.5832 18.0173C60.9621 18.3962 61.1516 18.9535 61.1516 19.6891V31.9604C61.1516 32.6737 60.9733 33.231 60.6166 33.6322C60.2599 34.0334 59.7361 34.2341 59.0451 34.2341ZM59.0451 14.3058C58.2649 14.3058 57.6519 14.1163 57.2061 13.7374C56.7825 13.3361 56.5708 12.79 56.5708 12.099C56.5708 11.3857 56.7825 10.8395 57.2061 10.4606C57.6519 10.0816 58.2649 9.89216 59.0451 9.89216C59.8476 9.89216 60.4606 10.0816 60.8841 10.4606C61.3076 10.8395 61.5194 11.3857 61.5194 12.099C61.5194 12.79 61.3076 13.3361 60.8841 13.7374C60.4606 14.1163 59.8476 14.3058 59.0451 14.3058ZM67.6344 34.2675C66.9656 34.2675 66.453 34.0892 66.0963 33.7325C65.7396 33.3536 65.5613 32.8186 65.5613 32.1275V19.4885C65.5613 18.7975 65.7396 18.2736 66.0963 17.917C66.453 17.5603 66.9545 17.382 67.6009 17.382C68.2474 17.382 68.7489 17.5603 69.1056 17.917C69.4623 18.2736 69.6406 18.7975 69.6406 19.4885V21.9294L69.2728 20.9263C69.7186 19.8117 70.4096 18.9312 71.3459 18.2848C72.2821 17.6383 73.3966 17.3151 74.6895 17.3151C76.0047 17.3151 77.0858 17.6272 77.9329 18.2513C78.7799 18.8755 79.3707 19.834 79.705 21.1269H79.2369C79.6827 19.9455 80.4183 19.0204 81.4437 18.3516C82.4691 17.6606 83.6505 17.3151 84.988 17.3151C86.2363 17.3151 87.2617 17.5603 88.0642 18.0507C88.889 18.5411 89.502 19.2879 89.9032 20.291C90.3044 21.2718 90.5051 22.5201 90.5051 24.0359V32.1275C90.5051 32.8186 90.3156 33.3536 89.9366 33.7325C89.58 34.0892 89.0673 34.2675 88.3986 34.2675C87.7298 34.2675 87.2171 34.0892 86.8605 33.7325C86.5038 33.3536 86.3255 32.8186 86.3255 32.1275V24.2031C86.3255 22.9548 86.1137 22.0408 85.6902 21.4612C85.2889 20.8817 84.5979 20.5919 83.6171 20.5919C82.5248 20.5919 81.6666 20.982 81.0425 21.7622C80.4183 22.5201 80.1063 23.5789 80.1063 24.9387V32.1275C80.1063 32.8186 79.9279 33.3536 79.5713 33.7325C79.2146 34.0892 78.7019 34.2675 78.0332 34.2675C77.3645 34.2675 76.8406 34.0892 76.4617 33.7325C76.105 33.3536 75.9267 32.8186 75.9267 32.1275V24.2031C75.9267 22.9548 75.7149 22.0408 75.2914 21.4612C74.8901 20.8817 74.2103 20.5919 73.2517 20.5919C72.1595 20.5919 71.3013 20.982 70.6771 21.7622C70.053 22.5201 69.7409 23.5789 69.7409 24.9387V32.1275C69.7409 33.5542 69.0387 34.2675 67.6344 34.2675ZM96.8899 34.2341C96.2212 34.2341 95.7085 34.0334 95.3518 33.6322C94.9952 33.231 94.8168 32.6737 94.8168 31.9604V19.6891C94.8168 18.9535 94.9952 18.3962 95.3518 18.0173C95.7085 17.616 96.2212 17.4154 96.8899 17.4154C97.5586 17.4154 98.0713 17.616 98.428 18.0173C98.8069 18.3962 98.9964 18.9535 98.9964 19.6891V31.9604C98.9964 32.6737 98.8181 33.231 98.4614 33.6322C98.1048 34.0334 97.5809 34.2341 96.8899 34.2341ZM96.8899 14.3058C96.1097 14.3058 95.4967 14.1163 95.0509 13.7374C94.6273 13.3361 94.4156 12.79 94.4156 12.099C94.4156 11.3857 94.6273 10.8395 95.0509 10.4606C95.4967 10.0816 96.1097 9.89216 96.8899 9.89216C97.6924 9.89216 98.3054 10.0816 98.7289 10.4606C99.1524 10.8395 99.3642 11.3857 99.3642 12.099C99.3642 12.79 99.1524 13.3361 98.7289 13.7374C98.3054 14.1163 97.6924 14.3058 96.8899 14.3058ZM110.829 34.3344C109.38 34.3344 108.165 34.0892 107.184 33.5988C106.226 33.1084 105.513 32.395 105.045 31.4588C104.576 30.5003 104.342 29.3189 104.342 27.9145V20.7925H102.604C102.069 20.7925 101.656 20.6588 101.366 20.3913C101.077 20.1015 100.932 19.7114 100.932 19.221C100.932 18.7083 101.077 18.3182 101.366 18.0507C101.656 17.7832 102.069 17.6495 102.604 17.6495H104.342V14.6067C104.342 13.9157 104.521 13.3919 104.877 13.0352C105.256 12.6786 105.78 12.5002 106.449 12.5002C107.118 12.5002 107.63 12.6786 107.987 13.0352C108.344 13.3919 108.522 13.9157 108.522 14.6067V17.6495H112.066C112.601 17.6495 113.014 17.7832 113.303 18.0507C113.593 18.3182 113.738 18.7083 113.738 19.221C113.738 19.7114 113.593 20.1015 113.303 20.3913C113.014 20.6588 112.601 20.7925 112.066 20.7925H108.522V27.6805C108.522 28.7504 108.756 29.5529 109.224 30.0879C109.692 30.6229 110.45 30.8904 111.498 30.8904C111.877 30.8904 112.211 30.857 112.501 30.7901C112.791 30.7232 113.047 30.6786 113.27 30.6563C113.537 30.634 113.76 30.7232 113.939 30.9238C114.117 31.1022 114.206 31.4811 114.206 32.0607C114.206 32.5065 114.128 32.9077 113.972 33.2644C113.838 33.5988 113.582 33.8328 113.203 33.9666C112.913 34.0557 112.534 34.1337 112.066 34.2006C111.598 34.2898 111.186 34.3344 110.829 34.3344Z" fill="white"/>
<path d="M122.18 34.3344C120.33 34.3344 118.937 33.8105 118.001 32.7628C117.064 31.6929 116.596 30.1325 116.596 28.0817V12.2662C116.596 11.5751 116.775 11.0513 117.131 10.6946C117.488 10.338 118.001 10.1597 118.669 10.1597C119.338 10.1597 119.851 10.338 120.208 10.6946C120.586 11.0513 120.776 11.5751 120.776 12.2662V27.8811C120.776 28.9065 120.988 29.6644 121.411 30.1548C121.857 30.6452 122.481 30.8904 123.284 30.8904C123.462 30.8904 123.629 30.8904 123.785 30.8904C123.941 30.8681 124.097 30.8458 124.253 30.8235C124.565 30.7789 124.777 30.8681 124.889 31.091C125 31.2916 125.056 31.7152 125.056 32.3616C125.056 32.9189 124.944 33.3536 124.721 33.6656C124.499 33.9777 124.131 34.1672 123.618 34.2341C123.395 34.2563 123.161 34.2786 122.916 34.3009C122.671 34.3232 122.425 34.3344 122.18 34.3344ZM135.169 34.3344C133.319 34.3344 131.725 33.9889 130.387 33.2978C129.05 32.6068 128.013 31.626 127.278 30.3554C126.565 29.0848 126.208 27.5802 126.208 25.8415C126.208 24.1473 126.553 22.665 127.244 21.3944C127.958 20.1238 128.927 19.1318 130.153 18.4185C131.402 17.6829 132.817 17.3151 134.4 17.3151C135.559 17.3151 136.596 17.5046 137.509 17.8835C138.446 18.2625 139.237 18.8086 139.883 19.5219C140.552 20.2352 141.054 21.1046 141.388 22.13C141.745 23.1331 141.923 24.2699 141.923 25.5405C141.923 25.9418 141.778 26.2538 141.488 26.4768C141.221 26.6774 140.831 26.7777 140.318 26.7777H129.585V24.3702H138.981L138.446 24.8718C138.446 23.8464 138.29 22.9882 137.978 22.2972C137.688 21.6061 137.253 21.0823 136.674 20.7256C136.116 20.3467 135.414 20.1572 134.567 20.1572C133.631 20.1572 132.828 20.3801 132.16 20.826C131.513 21.2495 131.012 21.8625 130.655 22.665C130.321 23.4452 130.153 24.3814 130.153 25.4736V25.7077C130.153 27.5356 130.577 28.9065 131.424 29.8204C132.293 30.7121 133.564 31.1579 135.236 31.1579C135.815 31.1579 136.462 31.091 137.175 30.9573C137.911 30.8012 138.602 30.5449 139.248 30.1882C139.716 29.9207 140.129 29.8093 140.485 29.8539C140.842 29.8761 141.121 29.9987 141.321 30.2217C141.544 30.4446 141.678 30.7232 141.722 31.0576C141.767 31.3696 141.7 31.6929 141.522 32.0272C141.366 32.3616 141.087 32.6514 140.686 32.8966C139.906 33.387 139.003 33.7548 137.978 34C136.974 34.2229 136.038 34.3344 135.169 34.3344ZM151.218 34.3344C150.26 34.3344 149.245 34.2341 148.175 34.0334C147.105 33.8328 146.147 33.4873 145.3 32.9969C144.943 32.774 144.687 32.5176 144.531 32.2279C144.397 31.9158 144.341 31.6149 144.364 31.3251C144.408 31.013 144.52 30.7455 144.698 30.5226C144.899 30.2997 145.144 30.1548 145.434 30.0879C145.746 30.021 146.08 30.0768 146.437 30.2551C147.328 30.6786 148.164 30.9796 148.945 31.1579C149.725 31.3139 150.494 31.3919 151.252 31.3919C152.322 31.3919 153.113 31.2136 153.626 30.857C154.161 30.478 154.428 29.9876 154.428 29.3857C154.428 28.873 154.25 28.4829 153.893 28.2155C153.559 27.9257 153.046 27.7139 152.355 27.5802L149.011 26.9449C147.629 26.6774 146.571 26.1758 145.835 25.4402C145.122 24.6823 144.765 23.7127 144.765 22.5312C144.765 21.4612 145.055 20.5362 145.634 19.756C146.236 18.9758 147.061 18.3739 148.109 17.9504C149.156 17.5269 150.36 17.3151 151.72 17.3151C152.701 17.3151 153.615 17.4266 154.462 17.6495C155.331 17.8501 156.167 18.1733 156.969 18.6191C157.304 18.7975 157.527 19.0315 157.638 19.3213C157.772 19.6111 157.805 19.912 157.738 20.2241C157.671 20.5139 157.538 20.7814 157.337 21.0266C157.136 21.2495 156.88 21.3944 156.568 21.4612C156.278 21.5058 155.944 21.439 155.565 21.2606C154.874 20.904 154.205 20.6476 153.559 20.4916C152.935 20.3355 152.333 20.2575 151.753 20.2575C150.661 20.2575 149.847 20.447 149.312 20.826C148.8 21.2049 148.543 21.7065 148.543 22.3306C148.543 22.7987 148.699 23.1888 149.011 23.5009C149.323 23.813 149.803 24.0247 150.449 24.1362L153.793 24.7715C155.242 25.039 156.334 25.5294 157.07 26.2427C157.828 26.956 158.206 27.9145 158.206 29.1182C158.206 30.7455 157.571 32.0272 156.301 32.9635C155.03 33.8774 153.336 34.3344 151.218 34.3344ZM167.545 34.3344C166.586 34.3344 165.572 34.2341 164.502 34.0334C163.432 33.8328 162.473 33.4873 161.626 32.9969C161.27 32.774 161.013 32.5176 160.857 32.2279C160.724 31.9158 160.668 31.6149 160.69 31.3251C160.735 31.013 160.846 30.7455 161.025 30.5226C161.225 30.2997 161.47 30.1548 161.76 30.0879C162.072 30.021 162.407 30.0768 162.763 30.2551C163.655 30.6786 164.491 30.9796 165.271 31.1579C166.051 31.3139 166.82 31.3919 167.578 31.3919C168.648 31.3919 169.439 31.2136 169.952 30.857C170.487 30.478 170.755 29.9876 170.755 29.3857C170.755 28.873 170.576 28.4829 170.22 28.2155C169.885 27.9257 169.373 27.7139 168.682 27.5802L165.338 26.9449C163.956 26.6774 162.897 26.1758 162.161 25.4402C161.448 24.6823 161.091 23.7127 161.091 22.5312C161.091 21.4612 161.381 20.5362 161.961 19.756C162.563 18.9758 163.387 18.3739 164.435 17.9504C165.483 17.5269 166.687 17.3151 168.046 17.3151C169.027 17.3151 169.941 17.4266 170.788 17.6495C171.657 17.8501 172.493 18.1733 173.296 18.6191C173.63 18.7975 173.853 19.0315 173.965 19.3213C174.098 19.6111 174.132 19.912 174.065 20.2241C173.998 20.5139 173.864 20.7814 173.664 21.0266C173.463 21.2495 173.207 21.3944 172.895 21.4612C172.605 21.5058 172.27 21.439 171.891 21.2606C171.2 20.904 170.532 20.6476 169.885 20.4916C169.261 20.3355 168.659 20.2575 168.08 20.2575C166.987 20.2575 166.174 20.447 165.639 20.826C165.126 21.2049 164.87 21.7065 164.87 22.3306C164.87 22.7987 165.026 23.1888 165.338 23.5009C165.65 23.813 166.129 24.0247 166.776 24.1362L170.119 24.7715C171.568 25.039 172.661 25.5294 173.396 26.2427C174.154 26.956 174.533 27.9145 174.533 29.1182C174.533 30.7455 173.898 32.0272 172.627 32.9635C171.356 33.8774 169.662 34.3344 167.545 34.3344Z" fill="#FF4F01"/>
</svg>
