<svg width="2092" height="605" viewBox="0 0 2092 605" fill="none" xmlns="http://www.w3.org/2000/svg">
<path d="M665.328 454C641.464 454 622.81 450.639 609.365 443.917C595.921 437.194 586.51 427.111 581.132 413.667C575.754 400.222 573.065 383.585 573.065 363.754V251.325C573.065 219.058 580.291 195.362 594.744 180.237C609.197 164.776 632.725 157.046 665.328 157.046H817.082C840.273 157.046 857.919 158.39 870.019 161.079C882.455 163.432 888.673 165.953 888.673 168.642L878.59 210.487C872.876 209.479 855.903 208.471 827.669 207.462C799.772 206.118 759.103 205.446 705.661 205.446H679.948C653.06 205.446 639.615 217.378 639.615 241.242V369.804C639.615 381.232 642.472 390.139 648.186 396.525C654.236 402.575 664.823 405.6 679.948 405.6H700.619C756.414 405.6 799.604 405.096 830.19 404.087C861.112 402.743 880.271 401.399 887.665 400.054L908.336 433.329C908.336 435.01 905.479 437.531 899.765 440.892C894.387 444.253 884.304 447.278 869.515 449.967C854.726 452.656 833.383 454 805.486 454H665.328ZM1033.31 459.042C1002.72 459.042 981.381 450.807 969.281 434.337C957.181 417.868 951.131 396.021 951.131 368.796V157.55H1017.68V370.812C1017.68 386.61 1021.55 397.197 1029.28 402.575C1037.01 407.953 1046.59 410.642 1058.01 410.642H1164.9C1175.65 410.642 1185.06 407.953 1193.13 402.575C1201.2 396.861 1205.23 386.274 1205.23 370.812V157.55H1271.78V368.796C1271.78 386.946 1269.26 402.743 1264.22 416.187C1259.18 429.632 1250.77 440.219 1239.01 447.95C1227.25 455.344 1210.94 459.042 1190.11 459.042H1033.31ZM1344.7 454V157.046H1564.01C1595.6 157.046 1618.63 163.432 1633.08 176.204C1647.53 188.64 1654.76 203.765 1654.76 221.579V236.704C1654.76 250.485 1651.73 261.912 1645.68 270.988C1639.97 279.726 1633.75 285.944 1627.03 289.642C1641.82 294.347 1653.58 302.582 1662.32 314.346C1671.06 325.774 1675.43 340.899 1675.43 359.721V368.796C1675.43 378.879 1674.25 388.962 1671.9 399.046C1669.55 409.129 1665.01 418.372 1658.29 426.775C1651.9 434.842 1642.66 441.396 1630.56 446.437C1618.79 451.479 1603.33 454 1584.18 454H1344.7ZM1411.25 276.029H1553.42C1565.19 276.365 1573.92 273.508 1579.64 267.458C1585.35 261.072 1588.21 253.174 1588.21 243.762V238.721C1588.21 230.99 1585.52 223.596 1580.14 216.537C1574.76 209.143 1564.68 205.446 1549.89 205.446H1411.25V276.029ZM1411.25 405.6H1570.06C1582.83 405.6 1592.41 402.407 1598.8 396.021C1605.52 389.635 1608.88 380.896 1608.88 369.804V360.729C1608.88 350.31 1605.01 341.907 1597.28 335.521C1589.55 328.799 1576.78 325.437 1558.97 325.437H1411.25V405.6ZM1745.96 454V157.55H2059.55V205.95H1812.51V275.525H2001.07V325.437H1812.51V405.6H2061.57L2081.74 448.454C2081.74 449.799 2077.2 451.143 2068.12 452.488C2059.05 453.496 2043.42 454 2021.24 454H1745.96Z" fill="white"/>
<path fill-rule="evenodd" clip-rule="evenodd" d="M67.2234 100.906H143.423V152.596H101.263C73.6544 152.596 51.273 174.973 51.273 202.577V402.498C51.273 430.1 73.6544 452.477 101.263 452.477H302.101C329.709 452.477 352.091 430.1 352.091 402.498V202.577C352.091 189.321 346.824 176.608 337.449 167.235C328.074 157.862 315.359 152.596 302.101 152.596H265.096V100.906H336.11C353.939 100.906 371.038 107.987 383.646 120.592C396.25 133.197 403.333 150.292 403.333 168.118V436.955C403.333 474.077 373.235 504.167 336.11 504.167H67.2234C30.097 504.167 0 474.077 0 436.955V168.118C0 130.998 30.097 100.906 67.2234 100.906Z" fill="#FF4F01"/>
<path fill-rule="evenodd" clip-rule="evenodd" d="M122.445 245.175C122.445 231.075 134.538 219.644 149.455 219.644H257.49C264.653 219.644 271.523 222.334 276.588 227.122C281.653 231.91 284.499 238.404 284.499 245.175V356.138C284.499 370.238 272.406 381.669 257.49 381.669H149.455C134.538 381.669 122.445 370.238 122.445 356.138V245.175Z" fill="#FF4F01"/>
<path fill-rule="evenodd" clip-rule="evenodd" d="M72.0156 109.526C72.0156 104.774 75.8685 100.921 80.6214 100.921H156.902C159.185 100.921 161.373 101.828 162.987 103.441C164.601 105.055 165.508 107.244 165.508 109.526V143.942C165.508 148.694 161.655 152.546 156.902 152.546H80.6214C75.8685 152.546 72.0156 148.694 72.0156 143.942V109.526Z" fill="#FF4F01"/>
<path fill-rule="evenodd" clip-rule="evenodd" d="M237.688 109.438C237.688 104.686 241.54 100.833 246.293 100.833H322.574C324.856 100.833 327.045 101.74 328.659 103.354C330.273 104.967 331.18 107.156 331.18 109.438V143.854C331.18 148.606 327.327 152.458 322.574 152.458H246.293C241.54 152.458 237.688 148.606 237.688 143.854V109.438Z" fill="#FF4F01"/>
</svg>
